# xmcd
#
# Track frame offsets:
#	150
#	12101
#	24577
#	36459
#	47097
#	58211
#	70095
#	93804
#	116042
#	129119
#	144147
#	156133
#	166638
#	179047
#	190966
#	204558
#	218242
#	232518
#	244151
#	255919
#	278183
#	288749
#	304065
#	313952
#	324595
#	336472
#	348029
#
# Disc length: 4852 seconds
#
# Revision: 0
# Processed by: cddbd v1.5.2PL0 Copyright (c) Steve Scherf et al.
# Submitted via: EasyCDDAExtractor 2010.6.0.0
#
DISCID=8612f21b
DTITLE=George Hamilton IV - My North Country Home CD 1
DYEAR=1900
DGENRE=
TTITLE0=Did She Mention My Name
TTITLE1=Early Morning Rain
TTITLE2=Steel Rail Blues
TTITLE3=For Loving Me
TTITLE4=I'm Not Saying (1967)
TTITLE5=Go Go Round
TTITLE6=Ballad Of The Yarmouth Castle
TTITLE7=Canadian Railroad Trilogy
TTITLE8=Song For A Winter's Night
TTITLE9=Home From The Forest
TTITLE10=Long Thin Dawn
TTITLE11=I'm Not Saying (1971)
TTITLE12=10 Degrees And Getting Colder
TTITLE13=Alberta Bound
TTITLE14=Christian Island (Georgian Bay)
TTITLE15=Mountains And Maryann
TTITLE16=Second Cup Of Coffee (Alt.?)
TTITLE17=Did She Mention My Name (Alt.)
TTITLE18=Go Go Round (Alt.)
TTITLE19=Canadian Railroad Trilogy (Alt.)
TTITLE20=Something Special To Me
TTITLE21=Canadian Pacific
TTITLE22=North Country
TTITLE23=You Wanted Me To Tell You Like It Is
TTITLE24=My Rocky Mountain Home
TTITLE25=Four Strong Winds
TTITLE26=Summer Wages
EXTD=
EXTT0=
EXTT1=
EXTT2=
EXTT3=
EXTT4=
EXTT5=
EXTT6=
EXTT7=
EXTT8=
EXTT9=
EXTT10=
EXTT11=
EXTT12=
EXTT13=
EXTT14=
EXTT15=
EXTT16=
EXTT17=
EXTT18=
EXTT19=
EXTT20=
EXTT21=
EXTT22=
EXTT23=
EXTT24=
EXTT25=
EXTT26=
PLAYORDER=
